<svg width="92" height="32" viewBox="0 0 92 32" fill="none" xmlns="http://www.w3.org/2000/svg">
<path d="M85.321 0H6.1577C2.7569 0 0 2.75689 0 6.1577V25.8346C0 29.2354 2.7569 31.9923 6.1577 31.9923H85.321C88.7218 31.9923 91.4787 29.2354 91.4787 25.8346V6.1577C91.4787 2.75689 88.7218 0 85.321 0Z" fill="#4F0702"/>
<path d="M74.1876 25.2617V7.88354H78.5812V25.2617H74.1876ZM67.6953 18.7695V14.3758H85.0735V18.7695H67.6953Z" fill="#FBF4E1"/>
<path d="M55.113 0H6.1577C2.7569 0 0 2.75689 0 6.1577V25.8346C0 29.2354 2.7569 31.9923 6.1577 31.9923H55.113C58.5138 31.9923 61.2707 29.2354 61.2707 25.8346V6.1577C61.2707 2.75689 58.5138 0 55.113 0Z" fill="#FF6B4C"/>
<path d="M17.8608 11.1538H10.5088V15.3778H17.3688V18.5218H10.5088V25.2058H6.63281V7.9978H17.8608V11.1538ZM19.9248 25.2058V7.9978H25.7648C31.8768 7.9978 34.6768 10.7938 34.6768 16.3858C34.6768 19.0658 34.0968 21.2058 32.4248 22.8058C30.7608 24.4058 28.5408 25.2058 25.7648 25.2058H19.9248ZM23.5448 11.1538V22.0618H25.4648C27.1448 22.0618 28.4608 21.5578 29.4128 20.5498C30.3728 19.5418 30.8528 18.1698 30.8528 16.4338C30.8528 14.7938 30.3768 13.5058 29.4248 12.5698C28.4808 11.6258 27.1528 11.1538 25.4408 11.1538H23.5448ZM54.8368 25.2058H51.7768V14.9098C51.7768 13.7978 52.2128 13.0418 52.0528 13.5058L47.2528 25.2058H44.8528L40.2368 13.6258C40.1248 13.3138 40.2568 14.4098 40.2568 15.6898V25.2058H36.7648V7.9978H41.1608L45.7929 20.0101L45.8598 19.9396L50.8408 7.9978H54.8368V25.2058Z" fill="white"/>
</svg>
