<svg width="129" height="29" viewBox="0 0 129 29" fill="none" xmlns="http://www.w3.org/2000/svg">
<g clip-path="url(#clip0_390_7294)">
<path d="M74.9865 0H5.25238C2.25665 0 -0.171875 2.42852 -0.171875 5.42425V22.7575C-0.171875 25.7532 2.25665 28.1817 5.25238 28.1817H74.9865C77.9823 28.1817 80.4108 25.7532 80.4108 22.7575V5.42425C80.4108 2.42852 77.9823 0 74.9865 0Z" fill="#4F0702"/>
<path d="M102.104 0.000148654H41.3618C38.366 0.000148654 35.9375 -2.9956 35.9375 0.000133634V28.1819C35.9375 31.1776 38.366 28.1819 41.3618 28.1819H102.104C105.1 28.1819 107.528 25.7533 107.528 22.7576V5.4244C107.528 2.42867 105.1 0.000148654 102.104 0.000148654Z" fill="#4F0702"/>
<path d="M96.9365 21.6493C95.9077 21.6493 94.9775 21.4731 94.1459 21.1207C93.3284 20.7684 92.6801 20.261 92.2009 19.5986C91.7217 18.9361 91.475 18.1539 91.4609 17.2519H94.6321C94.6744 17.8579 94.8858 18.3371 95.2664 18.6895C95.661 19.0418 96.1966 19.218 96.8731 19.218C97.5637 19.218 98.1064 19.0559 98.501 18.7318C98.8956 18.3935 99.093 17.9566 99.093 17.421C99.093 16.9841 98.9591 16.6247 98.6913 16.3428C98.4235 16.0609 98.0852 15.8424 97.6765 15.6874C97.2819 15.5183 96.7322 15.3351 96.0275 15.1377C95.0691 14.8559 94.2868 14.581 93.6808 14.3132C93.0888 14.0313 92.5744 13.6156 92.1375 13.0659C91.7146 12.5021 91.5032 11.7551 91.5032 10.8249C91.5032 9.95106 91.7217 9.18997 92.1586 8.54163C92.5955 7.8933 93.2086 7.4 93.9979 7.06174C94.7872 6.70938 95.6892 6.5332 96.704 6.5332C98.2262 6.5332 99.4594 6.9067 100.404 7.65369C101.362 8.38659 101.891 9.41547 101.989 10.7403H98.7336C98.7054 10.2329 98.4869 9.81716 98.0782 9.49299C97.6835 9.15473 97.155 8.9856 96.4926 8.9856C95.9147 8.9856 95.4496 9.13359 95.0973 9.42957C94.759 9.72555 94.5899 10.1554 94.5899 10.7192C94.5899 11.1138 94.7167 11.445 94.9704 11.7128C95.2382 11.9665 95.5624 12.1779 95.9429 12.3471C96.3375 12.5021 96.8872 12.6853 97.5919 12.8968C98.5503 13.1786 99.3326 13.4605 99.9386 13.7424C100.545 14.0243 101.066 14.4471 101.503 15.0109C101.94 15.5747 102.158 16.3146 102.158 17.2307C102.158 18.02 101.954 18.7529 101.545 19.4294C101.137 20.106 100.538 20.6486 99.7484 21.0573C98.9591 21.452 98.0218 21.6493 96.9365 21.6493Z" fill="white"/>
<path d="M75.0234 14.1017C75.0234 12.65 75.3476 11.3533 75.9959 10.2117C76.6584 9.05593 77.5534 8.16094 78.6809 7.5267C79.8225 6.87837 81.0981 6.5542 82.5075 6.5542C84.1565 6.5542 85.6012 6.97703 86.8415 7.82268C88.0818 8.66834 88.9485 9.83816 89.4418 11.3321H86.0381C85.6998 10.6274 85.2206 10.0989 84.6005 9.74654C83.9944 9.39419 83.2897 9.21801 82.4863 9.21801C81.6266 9.21801 80.8585 9.42238 80.1819 9.83111C79.5195 10.2257 78.998 10.7895 78.6175 11.5224C78.251 12.2553 78.0678 13.1151 78.0678 14.1017C78.0678 15.0742 78.251 15.9339 78.6175 16.6809C78.998 17.4138 79.5195 17.9846 80.1819 18.3934C80.8585 18.788 81.6266 18.9853 82.4863 18.9853C83.2897 18.9853 83.9944 18.8091 84.6005 18.4568C85.2206 18.0903 85.6998 17.5548 86.0381 16.85H89.4418C88.9485 18.3581 88.0818 19.535 86.8415 20.3806C85.6153 21.2122 84.1706 21.628 82.5075 21.628C81.0981 21.628 79.8225 21.3109 78.6809 20.6766C77.5534 20.0283 76.6584 19.1333 75.9959 17.9917C75.3476 16.85 75.0234 15.5534 75.0234 14.1017Z" fill="white"/>
<path d="M58.9219 14.1017C58.9219 12.65 59.246 11.3533 59.8944 10.2117C60.5568 9.05593 61.4518 8.16094 62.5793 7.5267C63.721 6.87837 64.9965 6.5542 66.4059 6.5542C68.0549 6.5542 69.4996 6.97703 70.7399 7.82268C71.9802 8.66834 72.847 9.83816 73.3403 11.3321H69.9365C69.5983 10.6274 69.1191 10.0989 68.4989 9.74654C67.8929 9.39419 67.1881 9.21801 66.3848 9.21801C65.525 9.21801 64.7569 9.42238 64.0804 9.83111C63.4179 10.2257 62.8964 10.7895 62.5159 11.5224C62.1495 12.2553 61.9662 13.1151 61.9662 14.1017C61.9662 15.0742 62.1495 15.9339 62.5159 16.6809C62.8964 17.4138 63.4179 17.9846 64.0804 18.3934C64.7569 18.788 65.525 18.9853 66.3848 18.9853C67.1881 18.9853 67.8929 18.8091 68.4989 18.4568C69.1191 18.0903 69.5983 17.5548 69.9365 16.85H73.3403C72.847 18.3581 71.9802 19.535 70.7399 20.3806C69.5137 21.2122 68.069 21.628 66.4059 21.628C64.9965 21.628 63.721 21.3109 62.5793 20.6766C61.4518 20.0283 60.5568 19.1333 59.8944 17.9917C59.246 16.85 58.9219 15.5534 58.9219 14.1017Z" fill="white"/>
<path d="M48.3766 0H5.25238C2.25665 0 -0.171875 2.42852 -0.171875 5.42425V22.7575C-0.171875 25.7532 2.25665 28.1817 5.25238 28.1817H48.3766C51.3723 28.1817 53.8009 25.7532 53.8009 22.7575V5.42425C53.8009 2.42852 51.3723 0 48.3766 0Z" fill="#FF6B4C"/>
<path d="M47.9011 6.71216V21.4688H44.9413V11.8706L40.9878 21.4688H38.7469L34.7723 11.8706V21.4688H31.8125V6.71216H35.174L39.8674 17.6845L44.5607 6.71216H47.9011Z" fill="white"/>
<path d="M21.9476 6.71216C23.4979 6.71216 24.858 7.01518 26.0278 7.62124C27.2118 8.22729 28.1208 9.09408 28.7551 10.2216C29.4034 11.3351 29.7276 12.6317 29.7276 14.1116C29.7276 15.5915 29.4034 16.8882 28.7551 18.0016C28.1208 19.101 27.2118 19.9537 26.0278 20.5597C24.858 21.1658 23.4979 21.4688 21.9476 21.4688H16.7891V6.71216H21.9476ZM21.8418 18.953C23.3922 18.953 24.5902 18.5302 25.4359 17.6845C26.2815 16.8389 26.7044 15.6479 26.7044 14.1116C26.7044 12.5754 26.2815 11.3774 25.4359 10.5176C24.5902 9.64376 23.3922 9.20684 21.8418 9.20684H19.7489V18.953H21.8418Z" fill="white"/>
<path d="M14.8229 6.71216V9.10113H8.67073V12.8854H13.3852V15.2321H8.67073V21.4688H5.71094V6.71216H14.8229Z" fill="white"/>
<path d="M118.899 22.2528V6.94458H122.769V22.2528H118.899ZM113.18 16.5339V12.6636H128.488V16.5339H113.18Z" fill="#FF6B4C"/>
</g>
<defs>
<clipPath id="clip0_390_7294">
<rect width="128.61" height="28.1885" rx="5.41219" fill="white"/>
</clipPath>
</defs>
</svg>
