<svg width="29" height="29" viewBox="0 0 29 29" fill="none" xmlns="http://www.w3.org/2000/svg">
<g clip-path="url(#clip0_63_10568)">
<path d="M10.6159 0.019923C13.2803 -0.123666 16.0413 0.528586 18.2008 2.13904C20.2655 3.64813 21.6732 5.95776 22.2494 8.43538C22.7372 10.5074 22.732 12.6649 22.2344 14.7345C21.4911 17.7659 19.4771 20.4978 16.6973 21.9609C14.7856 22.9876 12.568 23.3987 10.4094 23.2288C8.00861 23.0783 5.72364 22.1435 3.90569 20.5682C1.72276 18.6706 0.382596 15.9001 0.075709 13.0452C-0.179561 10.5179 0.21836 7.89199 1.41681 5.64055C2.50831 3.57179 4.26764 1.93319 6.40865 0.991262C7.7411 0.416693 9.16642 0.0876268 10.6159 0.019923ZM10.4188 3.37878C8.81914 3.60638 7.36614 4.43456 6.35515 5.69498C4.92583 7.44527 4.29047 9.75583 4.37118 11.9932C4.43594 13.9969 5.02813 16.0381 6.29415 17.6166C7.24637 18.8078 8.60683 19.603 10.1119 19.8484C11.6576 20.0989 13.3159 19.8915 14.6692 19.0704C16.1089 18.2154 17.1093 16.7617 17.6546 15.2028C18.4917 12.7994 18.4692 10.0796 17.4791 7.724C16.8456 6.21303 15.7682 4.84565 14.3126 4.05731C13.1339 3.40975 11.7458 3.20422 10.4188 3.37878Z" fill="#0112AA"/>
<path d="M22.3848 18.935C23.4092 18.4223 24.5492 18.1849 25.693 18.2461C26.4729 18.3043 27.2885 18.5737 27.799 19.1968C28.4043 19.942 28.5047 20.9856 28.3048 21.8978C27.9501 23.2455 27.0097 24.3294 26.0731 25.3195C25.6208 25.7888 25.1609 26.2421 24.6888 26.6869C26.0262 26.6963 27.3635 26.6869 28.7009 26.6926C28.6943 27.2031 28.7009 27.7146 28.7009 28.226C26.5236 28.226 24.3466 28.226 22.1699 28.226V26.5874C23.4144 25.4209 24.7189 24.2891 25.7024 22.8823C26.0459 22.3708 26.3753 21.8124 26.4213 21.1845C26.4374 20.9726 26.3973 20.7602 26.305 20.5687C26.2127 20.3772 26.0715 20.2135 25.8957 20.094C25.4096 19.7533 24.7789 19.7562 24.2158 19.8481C23.6152 19.9692 23.0634 20.2517 22.5491 20.5745C22.4937 20.0274 22.4468 19.4802 22.3848 18.935Z" fill="#0112AA"/>
</g>
<defs>
<clipPath id="clip0_63_10568">
<rect width="28.7" height="28.227" fill="white"/>
</clipPath>
</defs>
</svg>
